<svg width="47" height="48" viewBox="0 0 47 48" fill="none" xmlns="http://www.w3.org/2000/svg">
<path d="M13.3039 26.0929C10.5494 27.2868 8.04109 28.9553 5.90304 31.0186C3.59217 33.2486 1.75909 35.8961 0.508461 38.8097C-1.55698 43.6217 2.98948 48 8.38673 48H38.6133C44.0105 48 48.557 43.6217 46.4915 38.8097C45.2409 35.8961 43.4078 33.2486 41.097 31.0186C38.9589 28.9553 36.4506 27.2868 33.6961 26.0929C30.9064 28.2602 27.3602 29.5573 23.5 29.5573C19.6398 29.5573 16.0936 28.2602 13.3039 26.0929Z" fill="#CCCCCC"/>
<path d="M37.8572 13.8397C37.8525 18.0595 35.8929 21.8374 32.8054 24.3757C32.7534 24.4184 32.7083 24.4657 32.6698 24.5164C30.1827 26.5107 26.9865 27.71 23.5 27.71C20.0135 27.71 16.8173 26.5108 14.3302 24.5164C14.2917 24.4657 14.2466 24.4184 14.1946 24.3757C11.107 21.8373 9.14739 18.0592 9.14278 13.8393C9.15159 6.19459 15.5762 0 23.5 0C31.424 0 37.8486 6.19481 37.8572 13.8397Z" fill="#CCCCCC"/>
</svg>
