<svg width="24" height="24" viewBox="0 0 24 24" fill="none" xmlns="http://www.w3.org/2000/svg">
<path fill-rule="evenodd" clip-rule="evenodd" d="M12.7511 2.43567C12.3363 2.02083 11.6637 2.02083 11.2489 2.43567L2.43567 11.2489C2.02083 11.6637 2.02083 12.3363 2.43567 12.7511L11.2489 21.5643C11.6637 21.9792 12.3363 21.9792 12.7511 21.5643L21.5643 12.7511C21.9792 12.3363 21.9792 11.6637 21.5643 11.2489L12.7511 2.43567ZM9.74659 0.933394C10.9911 -0.311131 13.0089 -0.311131 14.2534 0.933394L23.0666 9.74659C24.3111 10.9911 24.3111 13.0089 23.0666 14.2534L14.2534 23.0666C13.0089 24.3111 10.9911 24.3111 9.74659 23.0666L0.933394 14.2534C-0.311131 13.0089 -0.311131 10.9911 0.933394 9.74659L9.74659 0.933394Z" fill="#0080D3"/>
<path d="M17.7097 11.7344C17.7097 14.8878 15.1534 17.4441 12 17.4441C8.8466 17.4441 6.29028 14.8878 6.29028 11.7344C6.29028 8.58104 8.8466 6.02472 12 6.02472C15.1534 6.02472 17.7097 8.58104 17.7097 11.7344Z" fill="#0080D3"/>
<path d="M8.42549 11.6016C8.42549 10.8751 9.01611 10.2844 9.7427 10.2844H11.4423V9.47711H9.7427C8.56996 9.47711 7.61816 10.4289 7.61816 11.6016C7.61816 12.7744 8.56996 13.7262 9.7427 13.7262H11.4423V12.9189H9.7427C9.01611 12.9189 8.42549 12.3282 8.42549 11.6016ZM10.1676 12.0266H13.5669V11.1767H10.1676V12.0266ZM13.9918 9.47711H12.2921V10.2844H13.9918C14.7184 10.2844 15.309 10.8751 15.309 11.6016C15.309 12.3282 14.7184 12.9189 13.9918 12.9189H12.2921V13.7262H13.9918C15.1645 13.7262 16.1163 12.7744 16.1163 11.6016C16.1163 10.4289 15.1645 9.47711 13.9918 9.47711Z" fill="white"/>
</svg>
