<svg width="25" height="24" viewBox="0 0 25 24" fill="none" xmlns="http://www.w3.org/2000/svg">
<g clip-path="url(#clip0_236_1509)">
<path d="M21.47 7.27005C21.86 6.88005 21.86 6.25005 21.47 5.86005L18.64 3.03005C18.25 2.64005 17.62 2.64005 17.23 3.03005L12.74 7.52005L8.85 3.63005C8.07 2.85005 6.8 2.85005 6.02 3.63005L4.12 5.53005C3.34 6.31005 3.34 7.58005 4.12 8.36005L8.01 12.25L3.5 16.76V21H7.74L12.26 16.48L16.15 20.3701C17.1 21.3201 18.38 20.9701 18.98 20.3701L20.88 18.47C21.66 17.69 21.66 16.42 20.88 15.64L16.99 11.75L21.47 7.27005ZM5.54 6.94005L7.43 5.04005L8.7 6.31005L7.52 7.50005L8.93 8.91005L10.12 7.72005L11.32 8.92005L9.42 10.82L5.54 6.94005ZM16.77 14.38L15.58 15.57L16.99 16.98L18.18 15.79L19.45 17.06L17.55 18.96L13.66 15.07L15.56 13.17L16.77 14.38ZM6.91 19H5.5V17.59L15.11 7.98005L16.41 9.28005L16.52 9.39005L6.91 19ZM16.52 6.56005L17.93 5.15005L19.34 6.56005L17.93 7.97005L16.52 6.56005Z" fill="#0080D3"/>
</g>
<defs>
<clipPath id="clip0_236_1509">
<rect width="24" height="24" fill="white" transform="translate(0.5)"/>
</clipPath>
</defs>
</svg>
